<svg width="640" height="640" xmlns="http://www.w3.org/2000/svg">
 <g>
  <path id="svg_1" fill="#ffda5c" d="m271.22,404.5c-0.48,-0.58 -2.16,-0.94 -3.11,-1.67c-10.08,-7.67 -19.72,-15.84 -28.4,-25.07c-15.15,-16.11 -27.88,-33.96 -37.35,-54c-8.65,-18.33 -14.31,-37.54 -16.78,-57.68c-1.24,-10.13 -1.14,-20.31 -1.08,-30.48c0,-1.79 0.67,-3.5 0.64,-5.29c0.47,-1.11 1.21,-2.04 1.94,-2.96c2.9,-3.66 5.81,-7.3 8.93,-10.78c3.58,-3.98 7.32,-7.81 11.24,-11.44c2.92,-2.71 5.94,-5.32 9.07,-7.79c4.67,-3.68 9.46,-7.19 14.46,-10.4c3.71,-2.38 7.5,-4.65 11.39,-6.73c1.42,-0.76 2.82,-1.57 4.26,-2.29c5.4,-2.67 10.91,-5.07 16.55,-7.2c6.67,-2.51 13.48,-4.55 20.4,-6.22c3.04,-0.73 6.11,-1.38 9.2,-1.9c1.59,-0.26 3.15,-0.69 4.75,-0.83c1.94,-0.17 3.84,-0.72 5.8,-0.7c0.42,0 0.86,-0.02 1.26,-0.13c1.16,-0.31 2.35,-0.31 3.54,-0.37c0.93,-0.05 1.85,-0.18 2.78,-0.27c0.68,-0.06 1.35,-0.15 2.03,-0.16c6.71,-0.18 13.42,-0.18 20.12,0c0.76,0.02 1.52,0.15 2.27,0.23c0.59,0.06 1.18,0.15 1.77,0.17c1.53,0.07 3.05,0.09 4.55,0.44c0.73,0.17 1.53,0.05 2.28,0.17c1.51,0.23 3.03,0.38 4.53,0.63c3.42,0.56 6.83,1.21 10.23,1.9c2.41,0.49 4.81,1.02 7.17,1.67c4,1.11 8.01,2.2 11.92,3.59c6.56,2.32 13.01,4.89 19.26,7.95c6.1,2.99 12.02,6.29 17.75,9.95c1.29,0.82 2.52,1.71 3.7,2.69c3.53,2.93 7.04,5.87 10.48,8.9c2.42,2.13 4.71,4.41 7.11,6.56c3.03,2.73 5.95,5.57 8.75,8.53c4.14,4.38 8.26,8.77 12.16,13.37c2.91,3.44 5.71,6.95 8.35,10.59c2.34,3.23 4.49,6.59 6.4,10.1c1.46,2.68 2.92,5.36 4.24,8.12c2.67,5.59 5.1,11.28 7.17,17.12c1.1,3.12 3.09,9.42 3.09,9.42c-13.57,27.01 -120.55,100.54 -214.83,122.26l0.01,0z" class="cls-4"/>
  <path id="svg_2" fill="#ff9c31" d="m185.13,230.31c0.28,0.22 0.48,0.49 0.47,0.85c-0.02,0.68 0.04,1.38 -0.14,2.02c-0.25,0.92 -0.28,1.84 -0.28,2.77c0,5.85 0,11.71 0,17.56c0,1.1 0.05,2.18 0.31,3.28c0.21,0.89 0.13,1.85 0.17,2.78c0.04,1.1 -0.03,2.2 0.35,3.27c0.14,0.39 0.12,0.84 0.14,1.26c0.06,1.18 0.02,2.36 0.4,3.52c0.2,0.62 0,1.38 0.19,2.01c0.51,1.63 0.25,3.38 0.85,4.99c0.17,2.11 0.68,4.16 1.12,6.23c0.17,0.83 0.35,1.65 0.52,2.48c0.92,4.38 2.1,8.7 3.35,13c0.85,2.93 1.78,5.83 2.8,8.69c1.22,3.43 2.58,6.8 3.94,10.18c2.21,5.51 4.78,10.85 7.57,16.09c2.03,3.81 4.22,7.54 6.47,11.22c1.81,2.97 3.74,5.85 5.7,8.72c2.1,3.08 4.3,6.08 6.57,9.03c1.55,2.01 3.06,4.06 4.81,5.9c0.99,1.6 2.49,2.77 3.59,4.28c1.11,1.51 2.6,2.68 3.77,4.12c2.79,3.43 6.09,6.37 9.17,9.52c0.89,0.91 1.78,1.8 2.84,2.53c0.69,0.48 1.24,1.16 1.86,1.73c1.05,0.98 2,2.08 3.25,2.84c0.21,0.13 0.39,0.33 0.57,0.5c2.74,2.53 5.68,4.81 8.59,7.14c2.18,1.75 4.41,3.42 6.65,5.09c0.2,0.15 0.32,0.39 0.48,0.58c-2.83,0.87 -5.66,1.77 -8.5,2.59c-8.3,2.39 -16.66,4.59 -25.07,6.54c-5.86,1.36 -11.75,2.56 -17.64,3.78c-3.98,0.82 -7.97,1.61 -11.97,2.32c-2.75,0.49 -5.53,0.85 -8.3,1.23c-2.27,0.31 -4.54,0.59 -6.81,0.84c-1.1,0.12 -2.21,0.06 -3.3,0.23c-2.43,0.39 -4.91,0.32 -7.33,0.82c-0.33,0.07 -0.67,0.07 -1.01,0.09c-0.55,0.03 -0.99,-0.18 -1.31,-0.63c-0.3,-0.41 -0.59,-0.83 -0.86,-1.26c-5,-7.9 -9.35,-16.13 -12.99,-24.75c-3.61,-8.53 -6.52,-17.29 -8.68,-26.29c-1.22,-5.11 -2.24,-10.26 -2.97,-15.48c-0.78,-5.55 -1.32,-11.11 -1.57,-16.7c-0.15,-3.48 -0.32,-6.95 -0.21,-10.43c0.1,-3.56 0.21,-7.13 0.5,-10.67c1.53,-18.74 5.92,-36.79 13.39,-54.06c4.73,-10.94 10.56,-21.26 17.47,-30.96c0.34,-0.48 0.73,-0.93 1.09,-1.4l-0.01,0.01z" class="cls-1"/>
  <path id="svg_3" fill="#ff9c31" d="m444.01,448.96c-0.2,0.7 -0.81,1.07 -1.28,1.54c-9.41,9.4 -19.8,17.57 -31.14,24.52c-11.62,7.12 -23.91,12.79 -36.9,16.93c-6.47,2.06 -13.02,3.77 -19.69,5.01c-3.08,0.57 -6.17,1.1 -9.28,1.52c-3.28,0.44 -6.57,0.73 -9.87,1.04c-5.42,0.52 -10.85,0.44 -16.29,0.44c-1.44,0 -2.89,-0.02 -4.33,-0.07c-3.56,-0.12 -7.11,-0.45 -10.65,-0.85c-1.69,-0.19 -3.37,-0.33 -5.05,-0.61c-2.59,-0.43 -5.21,-0.71 -7.79,-1.2c-4.83,-0.93 -9.62,-2.02 -14.36,-3.32c-11.24,-3.09 -22.02,-7.33 -32.38,-12.65c-4.99,-2.56 -9.82,-5.37 -14.53,-8.4c-0.43,-0.27 -0.82,-0.59 -1.23,-0.9c-0.06,-0.04 -0.07,-0.15 -0.09,-0.23c-0.06,-0.18 0.02,-0.28 0.23,-0.34c0.49,-0.15 0.96,-0.33 1.45,-0.46c4.18,-1.11 8.36,-2.19 12.53,-3.33c6.95,-1.9 13.86,-3.93 20.73,-6.08c20.07,-6.26 39.88,-13.27 59.37,-21.14c2.75,-1.11 5.5,-2.23 8.25,-3.35c0.39,-0.16 0.8,-0.27 1.2,-0.41c1.56,-0.37 3.01,0.05 4.48,0.53c17.73,5.82 35.88,9.74 54.46,11.43c10.56,0.96 21.17,1.56 31.77,1.06c5.92,-0.28 11.86,-0.47 17.76,-1.18c0.93,-0.11 1.87,-0.28 2.63,0.5z" class="cls-1"/>
  <path id="svg_4" fill="#ffda5c" d="m444.01,448.96c-0.93,0.04 -1.84,0.06 -2.77,0.29c-0.81,0.2 -1.68,0.17 -2.52,0.2c-1.27,0.05 -2.53,0 -3.78,0.36c-0.63,0.19 -1.34,0.12 -2.02,0.14c-1.53,0.03 -3.05,0.03 -4.58,0.05c-0.76,0 -1.51,0.06 -2.27,0.24c-0.65,0.15 -1.34,0.19 -2.01,0.19c-5.17,0.01 -10.34,0 -15.51,0c-0.51,0 -1.04,0.06 -1.52,-0.07c-1.83,-0.52 -3.7,-0.33 -5.56,-0.39c-1.86,-0.06 -3.72,0.08 -5.56,-0.41c-0.72,-0.19 -1.52,-0.09 -2.28,-0.11c-1.18,-0.03 -2.38,0.05 -3.52,-0.38c-0.16,-0.06 -0.33,-0.08 -0.5,-0.08c-1.61,-0.04 -3.19,-0.18 -4.78,-0.48c-1.23,-0.23 -2.53,-0.11 -3.75,-0.54c-1.8,0.12 -3.49,-0.59 -5.28,-0.63c-1,-0.02 -1.95,-0.53 -2.99,-0.51c-1.43,-0.56 -3.02,-0.35 -4.46,-0.91c-1.94,-0.19 -3.81,-0.71 -5.71,-1.13c-3.38,-0.74 -6.74,-1.55 -10.09,-2.42c-2.45,-0.64 -4.88,-1.32 -7.31,-2.03c-3.49,-1.01 -6.96,-2.07 -10.4,-3.25c-0.65,-0.22 -1.3,-0.37 -1.96,-0.49c70.64,-26.51 116.97,-58.18 157.58,-84.65c0.18,-0.12 0.55,-0.16 0.69,-0.06c0.15,0.12 0.22,0.46 0.19,0.69c-0.22,1.59 -0.49,3.17 -0.73,4.76c-0.32,2.18 -0.74,4.34 -1.19,6.49c-0.74,3.56 -1.54,7.11 -2.5,10.63c-1.32,4.83 -2.87,9.58 -4.58,14.28c-1.33,3.66 -2.77,7.29 -4.41,10.83c-1.14,2.46 -2.26,4.94 -3.5,7.34c-3.91,7.54 -8.26,14.8 -13.2,21.72c-3.16,4.42 -6.55,8.66 -10.07,12.79c-1.92,2.26 -4,4.39 -6.02,6.56c-0.34,0.37 -0.77,0.65 -1.16,0.98l0.03,0z" class="cls-4"/>
  <path id="svg_5" fill="#fefaec" d="m417.6,345.54c-0.18,0.13 -0.35,0.26 -0.53,0.38c0.18,-0.13 0.35,-0.26 0.53,-0.38z" class="cls-5"/>
  <path id="svg_6" fill="#fefaec" d="m416.68,346.08c-0.15,0.25 -0.37,0.4 -0.66,0.44c0.15,-0.26 0.37,-0.4 0.66,-0.44z" class="cls-5"/>
  <path id="svg_7" fill="#fefaec" d="m415.99,346.54c-0.14,0.12 -0.29,0.24 -0.43,0.36c0.14,-0.12 0.29,-0.24 0.43,-0.36z" class="cls-5"/>
  <path id="svg_8" fill="#fefaec" d="m415.1,347.08c-0.19,0.13 -0.39,0.27 -0.58,0.4c0.19,-0.13 0.39,-0.27 0.58,-0.4z" class="cls-5"/>
  <path id="svg_9" fill="#55d5fe" d="m399.1,399.42c0.12,-0.27 0.33,-0.4 0.63,-0.38c-0.12,0.28 -0.33,0.4 -0.63,0.38z" class="cls-2"/>
  <path id="svg_10" fill="#ff9c31" d="m353.92,181.98c1.53,0 3.06,0 4.58,0c0.93,0 1.87,-0.02 2.76,0.34c0.15,0.06 0.33,0.1 0.5,0.1c1.8,0 3.52,0.41 5.23,0.95c3.55,0.47 6.88,1.75 10.24,2.91c3.44,1.19 6.78,2.64 10.07,4.23c5.9,2.85 11.44,6.28 16.79,10.03c1.93,1.36 3.78,2.86 5.64,4.33c5.29,4.15 9.96,8.96 14.63,13.75c1.11,1.6 2.51,2.97 3.72,4.51c1.31,1.67 2.6,3.34 3.87,5.03c1.48,1.97 2.85,4.01 4.1,6.12c1.3,2.18 2.61,4.37 3.78,6.62c0.98,1.88 1.8,3.84 2.63,5.78c0.97,2.26 1.77,4.58 2.48,6.93c0.81,2.67 1.54,5.36 1.71,8.17c0,0.08 0,0.17 0.02,0.25c0.67,2.15 0.39,4.37 0.47,6.57c0.15,3.87 -0.67,7.57 -1.98,11.18c-1.2,3.31 -2.95,6.25 -5.45,8.78c-2.42,2.45 -5.12,4.44 -8.22,5.89c-2.54,1.19 -5.25,1.89 -7.96,2.58c-2.29,0.04 -4.5,0.79 -6.82,0.61c-1.27,-0.1 -2.55,-0.01 -3.82,-0.02c-1.35,0 -2.71,0.07 -4.03,-0.39c-0.39,-0.14 -0.84,-0.09 -1.26,-0.12c-0.34,-0.02 -0.7,0.04 -1.01,-0.07c-1.14,-0.39 -2.35,-0.33 -3.49,-0.62c-2.7,-0.7 -5.44,-1.24 -8.08,-2.16c-1.68,-0.58 -3.36,-1.16 -5.05,-1.71c-1.22,-0.4 -2.35,-0.95 -3.44,-1.61c-0.05,-0.03 -0.06,-0.16 -0.05,-0.24c0,-0.05 0.1,-0.12 0.14,-0.12c0.59,0.03 1.21,-0.04 1.75,0.13c0.75,0.24 1.49,0.29 2.26,0.3c1.19,0.01 2.38,-0.02 3.57,0.01c3.02,0.09 5.89,-0.63 8.67,-1.67c1.99,-0.75 3.72,-1.96 5.31,-3.42c1.87,-1.72 3.05,-3.84 3.99,-6.13c0.25,-0.62 0.4,-1.29 0.53,-1.95c0.33,-1.74 0.73,-3.48 0.74,-5.26c0,-0.67 -0.13,-1.34 -0.22,-2.01c-0.05,-0.42 -0.17,-0.83 -0.2,-1.25c-0.26,-3.33 -1.28,-6.46 -2.44,-9.55c-0.48,-1.27 -1.07,-2.49 -1.61,-3.73c-0.82,-1.87 -1.93,-3.58 -2.96,-5.34c-1.62,-2.78 -3.6,-5.33 -5.49,-7.93c-0.25,-0.34 -0.55,-0.65 -0.83,-0.96c-0.79,-0.88 -1.66,-1.69 -2.31,-2.71c-0.27,-0.42 -0.67,-0.76 -1.03,-1.12c-1.44,-1.45 -2.87,-2.89 -4.32,-4.32c-0.72,-0.72 -1.41,-1.47 -2.31,-1.99c-0.22,-0.13 -0.4,-0.31 -0.58,-0.49c-3.02,-2.88 -6.45,-5.21 -9.9,-7.52c-2.75,-1.85 -5.6,-3.52 -8.57,-4.98c-4.65,-2.28 -9.48,-4.1 -14.56,-5.17c-1.51,-0.62 -3.18,-0.41 -4.73,-0.91c-0.46,-0.15 -1.01,-0.06 -1.52,-0.06c-1.27,0 -2.55,0.01 -3.82,0c-4.02,-0.06 -7.65,1.25 -11.11,3.14c-0.37,0.2 -0.69,0.49 -1.01,0.77c-0.32,0.27 -0.62,0.58 -0.93,0.87c-2.37,2.3 -2.73,2.8 -4.05,5.78c-0.62,1.4 -0.98,2.87 -1.11,4.41c-0.08,1.01 -0.38,2.01 -0.39,3.01c0,0.92 0.27,1.83 0.37,2.76c0.05,0.5 0,1.01 -0.02,1.52c0,0.06 -0.06,0.16 -0.11,0.17c-0.2,0.05 -0.31,-0.05 -0.41,-0.22c-0.85,-1.48 -1.4,-3.09 -1.97,-4.68c-1.06,-2.95 -2.09,-5.9 -2.65,-9c-0.11,-0.58 -0.3,-1.15 -0.38,-1.73c-0.25,-1.76 -0.63,-3.49 -0.56,-5.29c0.07,-1.69 0.04,-3.39 0,-5.09c-0.05,-2.66 0.53,-5.2 1.32,-7.72c0.79,-2.53 1.81,-4.93 3.35,-7.1c1.08,-1.52 2.2,-3.01 3.58,-4.29c1.25,-1.15 2.63,-2.13 4.04,-3.07c3.23,-2.17 6.86,-3.29 10.58,-4.16c1.88,-0.44 3.81,-0.81 5.78,-0.69c1.18,0.07 2.38,0.01 3.56,0.01c0,0 0,0.01 0,0.02l0,0.01z" class="cls-1"/>
  <g id="svg_11">
   <path id="svg_12" fill="#1d559f" d="m402.41,397.32s-38.19,14.87 -123.47,11.21c0,0 -79.32,24.6 -112,20.85c0,0 -90.85,8.68 -17.26,-63.19c0,0 -3.43,-16.6 -3.38,-44.11c0,0 -193.66,152.74 9.57,154.53c0,0 89.66,1.49 246.53,-79.3l0.01,0.01z" class="cls-6"/>
   <path id="svg_13" fill="#44b2fc" d="m400.69,398.13c-8.77,1.22 -28.73,12.49 -124.1,10.88c-0.23,0.06 131.74,-35.05 216.25,-124.19c0,0 77.45,-73.66 -32.26,-62.17c0,0 -19.49,-22.21 -30.38,-30.72c0,0 251.61,-45.02 108.98,109.1c-30.26,32.69 -43.74,44.35 -138.49,97.12l0,-0.02z" class="cls-3"/>
  </g>
 </g>
</svg>