<svg width="1200" height="1200" xmlns="http://www.w3.org/2000/svg" version="1.1">
 <g>
  <path id="svg_1" fill="#007db9" d="m1098.43335,370.73003c-1.12,-1.8 -2.3,-3.51 -3.55,-5.15c-16.5,-21.67 -56.5,-47.17 -147.16,-44.33c-72.21,2.25 -125.79,13.53 -144.6,18.03c3.97,2.98 7.87,6.05 11.7,9.2c20.24,16.66 38.49,35.64 54.35,56.53c1.32,-0.48 2.14,-0.8 2.41,-0.96c4.75,-2.75 21,-11.08 58.25,-10.25c36.65,0.83 58.93,15.6 63.37,21.63c-0.8,12.09 -4.45,33.23 -27.26,65.26c-10.27,14.43 -22.62,29.51 -38.42,45.88c-20.34,21.07 -46.38,44.26 -81.03,70.9c-9.78,7.52 -21.38,16.02 -34.63,25.16c-37.04,25.56 -86.89,56.15 -145.31,84.33c-18.44,8.9 -37.75,17.56 -57.77,25.75c-27.11,11.1 -55.56,21.31 -85.01,30.08l-44.93,11.38c-75.45,21.08 -135.82,28.58 -192.82,29.02c-54.39,0.43 -88.31,-18.52 -91.31,-20.26c-0.05,-0.03 -0.09,-0.05 -0.12,-0.07c-0.07,-0.04 -0.1,-0.06 -0.1,-0.06c2.07,-71.11 76.67,-104.77 76.67,-104.77c0,0 0.39,-0.2 1.15,-0.58c-4.69,-22.36 -7.15,-45.54 -7.15,-69.29c0,-3.59 0.06,-7.16 0.17,-10.72c0.14,-4.43 0.36,-8.84 0.67,-13.22c-32.94,25.48 -70.2,55.17 -85.62,70.58c-30.33,30.34 -136.66,145.34 -76,203c51.91,49.34 150.68,52.08 295.45,19.47c24.43,-5.5 50.17,-12.01 77.22,-19.47c44.24,-12.2 86.89,-26.89 127.38,-43c40.2,-15.99 78.26,-33.37 113.66,-51.1c0,0 239.47,-124.6 317.28,-220.41c0.06,-0.07 0.12,-0.13 0.17,-0.2c24.87,-27.14 43.76,-52.66 55.18,-73.18c24.34,-43.75 21.33,-77.25 7.71,-99.18z" class="st5"/>
  <path id="svg_2" fill="#fa0" d="m601.33335,272.00003c-49.34,0 -96.19,10.63 -138.4,29.72c-25.49,11.53 -49.28,26.14 -70.9,43.37c-25.87,20.6 -48.63,44.94 -67.46,72.2c-37.47,54.21 -59.41,119.98 -59.41,190.87c0,185.66 150.51,336.17 336.17,336.17c94.78,0 180.39,-39.22 241.48,-102.32c24.3,-25.08 44.72,-53.93 60.3,-85.59c18.56,-37.69 30.26,-79.37 33.47,-123.4c0.6,-8.21 0.91,-16.5 0.91,-24.86c0,-185.66 -150.5,-336.16 -336.16,-336.16z" class="st7"/>
  <path id="svg_3" fill="#ffd837" d="m937.49335,608.16003c0,8.36 -0.31,16.65 -0.91,24.86c-85.58,10.68 -184.19,-17.05 -316.36,-101.16c-161.34,-102.67 -157.29,-230.14 -157.29,-230.14c42.21,-19.09 89.06,-29.72 138.4,-29.72c185.66,0 336.16,150.5 336.16,336.16z" class="st4"/>
  <path id="svg_4" fill="#ff8600" d="m842.81335,842.01003c-61.09,63.1 -146.7,102.32 -241.48,102.32c-185.66,0 -336.17,-150.51 -336.17,-336.17c0,-70.89 21.94,-136.66 59.41,-190.87c0,0 -40.63,136.93 133.59,298.26c174.18,161.3 346.15,145.79 384.65,126.46z" class="st8"/>
  <path id="svg_5" fill="#ffce00" d="m936.58335,633.02003c-3.21,44.03 -14.91,85.71 -33.47,123.4c-74.45,6.01 -203.94,-7.04 -353.62,-122.95c-198,-153.33 -157.46,-288.38 -157.46,-288.38c21.62,-17.23 45.41,-31.84 70.9,-43.37c0,0 -4.05,127.47 157.29,230.14c132.17,84.11 230.78,111.84 316.36,101.16z" class="st6"/>
  <path id="svg_6" fill="#fa0" d="m903.11335,756.42003c-15.58,31.66 -36,60.51 -60.3,85.59c-38.5,19.33 -210.47,34.84 -384.65,-126.46c-174.22,-161.33 -133.59,-298.26 -133.59,-298.26c18.83,-27.26 41.59,-51.6 67.46,-72.2c0,0 -40.54,135.05 157.46,288.38c149.68,115.91 279.17,128.96 353.62,122.95z" class="st7"/>
  <path id="svg_7" fill="#fa0" d="m620.83335,426.52003s2.87,6.04 6.25,7.29s7.67,1.17 5.88,-2.25s-8.96,-19.07 -8.96,-31.49s-0.67,-26.25 34.25,-26.83s71.03,28.11 80.86,35.44s51.83,55.67 44.17,85.5s-39.42,26.42 -50.92,23.75s-17.08,-5.83 -17.75,-5.08s-4.64,5.36 -3.92,6.08s35.56,24.69 78,24.69s62,-25 62,-50.11s-2.47,-64.78 -61.03,-123.33s-127.22,-65 -148.22,-55c-21,10 -41.94,24.72 -36.61,61.06s16,50.28 16,50.28z" class="st7"/>
  <path id="svg_8" fill="#00d1ff" d="m1030.30335,504.75003c-7.97,7.06 -16.52,14.16 -25.56,21.25c-2.84,2.23 -5.73,4.46 -8.66,6.69c-2.04,1.55 -4.11,3.11 -6.2,4.66c-1.04,0.77 -2.09,1.55 -3.15,2.32c-2.8,2.07 -5.64,4.13 -8.52,6.18c-1,0.72 -2.01,1.44 -3.03,2.16c-1.53,1.1 -3.09,2.19 -4.65,3.28c-0.74,0.52 -1.49,1.04 -2.24,1.56c-5.22,3.63 -10.54,7.25 -15.96,10.86c-1.08,0.72 -2.17,1.44 -3.26,2.16c-13.78,9.1 -28.13,18.12 -42.86,26.98c-1.68,1.01 -3.36,2.02 -5.05,3.02c-1.69,1.01 -3.38,2.01 -5.08,3.01c-2.33,1.38 -4.67,2.75 -7.02,4.12c-1.72,1 -3.44,2 -5.17,2.99c-1.81,1.05 -3.63,2.09 -5.45,3.13c-6.14,3.51 -12.32,6.98 -18.54,10.42c-2.01,1.12 -4.03,2.23 -6.05,3.33c-2.02,1.11 -4.05,2.21 -6.07,3.31c-1.77,0.96 -3.55,1.92 -5.32,2.87c-2.07,1.11 -4.14,2.22 -6.22,3.32c-1.81,0.97 -3.63,1.94 -5.45,2.89c-1.82,0.97 -3.64,1.92 -5.46,2.87s-3.65,1.9 -5.47,2.85c-1.82,0.95 -3.64,1.89 -5.47,2.82c-4.02,2.07 -8.04,4.12 -12.06,6.15c-3.28,1.65 -6.56,3.29 -9.84,4.92c-1.58,0.79 -3.17,1.58 -4.76,2.36c-0.23,0.12 -0.47,0.23 -0.7,0.34c-4.63,2.28 -9.25,4.54 -13.86,6.76c-0.83,0.4 -1.66,0.8 -2.49,1.2c-3.62,1.74 -7.24,3.46 -10.84,5.16c-1.4,0.66 -2.79,1.32 -4.18,1.97c-1.39,0.66 -2.78,1.3 -4.16,1.95c-2.39,1.11 -4.78,2.22 -7.16,3.32c-0.22,0.1 -0.43,0.2 -0.64,0.29c-1.79,0.83 -3.57,1.64 -5.34,2.44c-0.39,0.19 -0.77,0.36 -1.15,0.53c-2.37,1.08 -4.73,2.15 -7.09,3.21c-2.74,1.23 -5.46,2.45 -8.17,3.65c-3.13,1.39 -6.24,2.76 -9.34,4.12c-3.66,1.6 -7.29,3.17 -10.9,4.71c-1.71,0.73 -3.41,1.46 -5.11,2.18c-2.66,1.13 -5.29,2.24 -7.91,3.33c-2.24,0.93 -4.46,1.86 -6.68,2.77c-1.87,0.77 -3.72,1.53 -5.57,2.28c-0.6,0.25 -1.2,0.49 -1.79,0.73c-1.22,0.5 -2.44,0.99 -3.65,1.47c-1.21,0.49 -2.41,0.97 -3.61,1.45c-1.17,0.47 -2.33,0.93 -3.49,1.39c-3.03,1.2 -6.03,2.37 -8.99,3.52c-1.37,0.53 -2.73,1.06 -4.09,1.58c-0.94,0.36 -1.87,0.71 -2.79,1.06c-0.93,0.36 -1.85,0.71 -2.77,1.05c-1.58,0.6 -3.15,1.19 -4.71,1.77c-3.4,1.27 -6.75,2.5 -10.05,3.69c-0.68,0.25 -1.35,0.49 -2.02,0.73c-2.21,0.8 -4.39,1.57 -6.54,2.32c-1.22,0.43 -2.42,0.85 -3.62,1.27c-3.24,1.12 -6.42,2.2 -9.54,3.24c20.02,-8.19 39.33,-16.85 57.77,-25.75c58.42,-28.18 108.27,-58.77 145.31,-84.33c13.25,-9.14 24.85,-17.64 34.63,-25.16c34.65,-26.64 60.69,-49.83 81.03,-70.9c15.8,-16.37 28.15,-31.45 38.42,-45.88c22.81,-32.03 26.46,-53.17 27.26,-65.26c0.03,-0.36 0.05,-0.72 0.07,-1.07c0.67,-11.89 0.78,-42.78 -46,-59.17c-46.78,-16.39 -112.78,-8.61 -129,-7.05c-0.87,0.08 -2.03,0.2 -3.45,0.34c-3.83,-3.15 -7.73,-6.22 -11.7,-9.2c18.81,-4.5 72.39,-15.78 144.6,-18.03c90.66,-2.84 130.66,22.66 147.16,44.33c1.25,1.64 2.43,3.35 3.55,5.15c5.96,10.68 21.33,54.76 -68.13,134.02z" class="st3"/>
  <path id="svg_9" fill="#00b9ff" d="m1090.72335,469.91003c-11.42,20.52 -30.31,46.04 -55.18,73.18c-0.05,0.07 -0.11,0.13 -0.17,0.2c-0.2,0.22 -0.57,0.63 -1.14,1.22c-11.77,12.14 -108.31,101.07 -510.46,218.28c29.45,-8.77 57.9,-18.98 85.01,-30.08c3.12,-1.04 6.3,-2.12 9.54,-3.24c1.2,-0.42 2.4,-0.84 3.62,-1.27c2.15,-0.75 4.33,-1.52 6.54,-2.32c0.67,-0.24 1.34,-0.48 2.02,-0.73c3.3,-1.19 6.65,-2.42 10.05,-3.69c1.56,-0.58 3.13,-1.17 4.71,-1.77c0.92,-0.34 1.84,-0.69 2.77,-1.05c0.92,-0.35 1.85,-0.7 2.79,-1.06c1.35,-0.52 2.72,-1.04 4.09,-1.58c2.96,-1.15 5.96,-2.32 8.99,-3.52c1.16,-0.46 2.32,-0.92 3.49,-1.39c1.2,-0.48 2.4,-0.96 3.61,-1.45c1.21,-0.48 2.43,-0.97 3.65,-1.47c0.59,-0.24 1.19,-0.48 1.79,-0.73c1.85,-0.75 3.7,-1.51 5.57,-2.28c2.21,-0.91 4.44,-1.83 6.68,-2.77c2.62,-1.09 5.25,-2.2 7.91,-3.33c1.7,-0.72 3.4,-1.44 5.11,-2.18c3.61,-1.54 7.24,-3.11 10.9,-4.71c3.1,-1.35 6.21,-2.72 9.34,-4.12c2.71,-1.2 5.43,-2.42 8.17,-3.65c2.36,-1.06 4.72,-2.13 7.09,-3.21c0.38,-0.17 0.76,-0.34 1.15,-0.53c1.77,-0.8 3.55,-1.61 5.34,-2.44c0.21,-0.09 0.42,-0.19 0.64,-0.29c2.38,-1.1 4.77,-2.21 7.16,-3.32c1.38,-0.65 2.77,-1.29 4.16,-1.95c1.39,-0.65 2.78,-1.31 4.18,-1.97c3.6,-1.69 7.22,-3.42 10.84,-5.16c0.83,-0.4 1.66,-0.8 2.49,-1.2c4.61,-2.22 9.23,-4.47 13.86,-6.76c0.23,-0.11 0.47,-0.22 0.7,-0.34c1.58,-0.78 3.17,-1.56 4.76,-2.36c3.28,-1.62 6.56,-3.27 9.84,-4.92c4.02,-2.03 8.04,-4.08 12.06,-6.15c1.83,-0.93 3.65,-1.87 5.47,-2.82c1.82,-0.95 3.65,-1.9 5.47,-2.85s3.64,-1.9 5.46,-2.87c1.82,-0.95 3.64,-1.92 5.45,-2.89c2.08,-1.1 4.15,-2.21 6.22,-3.32c1.77,-0.95 3.55,-1.91 5.32,-2.87c2.02,-1.1 4.05,-2.2 6.07,-3.31c2.02,-1.1 4.04,-2.21 6.05,-3.33c6.22,-3.44 12.4,-6.91 18.54,-10.42c1.82,-1.04 3.64,-2.08 5.45,-3.13c1.73,-0.99 3.45,-1.99 5.17,-2.99c2.35,-1.37 4.69,-2.74 7.02,-4.12c1.7,-1 3.39,-2 5.08,-3.01c1.69,-1 3.37,-2.01 5.05,-3.02c14.73,-8.86 29.08,-17.88 42.86,-26.98c1.09,-0.72 2.18,-1.44 3.26,-2.16c5.42,-3.61 10.74,-7.23 15.96,-10.86c0.75,-0.52 1.5,-1.04 2.24,-1.56c1.56,-1.09 3.12,-2.18 4.65,-3.28c1.02,-0.72 2.03,-1.44 3.03,-2.16c2.88,-2.05 5.72,-4.11 8.52,-6.18c1.06,-0.77 2.11,-1.55 3.15,-2.32c2.09,-1.55 4.16,-3.11 6.2,-4.66c2.93,-2.23 5.82,-4.46 8.66,-6.69c9.04,-7.09 17.59,-14.19 25.56,-21.25c89.46,-79.26 74.09,-123.34 68.13,-134.02c13.62,21.93 16.63,55.43 -7.71,99.18z" class="st9"/>
  <path id="svg_10" fill="#0081c0" d="m272.31335,677.45003c-0.76,0.38 -1.15,0.58 -1.15,0.58c0,0 -74.6,33.66 -76.67,104.77c-14.2,-9.4 -22.88,-21.54 -22.94,-37.05c-0.17,-46.34 31,-83.5 51.83,-106.34c20.84,-22.83 40.5,-39.83 40.5,-39.83l1.45,-2.14c-0.11,3.56 -0.17,7.13 -0.17,10.72c0,23.75 2.46,46.93 7.15,69.29z" class="st1"/>
  <path id="svg_11" fill="#006ff4" d="m718.09335,763.70003c-35.4,17.73 -73.46,35.11 -113.66,51.1c-40.49,16.11 -83.14,30.8 -127.38,43c-27.05,7.46 -52.79,13.97 -77.22,19.47c-144.77,32.61 -243.54,29.87 -295.45,-19.47c-60.66,-57.66 45.67,-172.66 76,-203c15.42,-15.41 52.68,-45.1 85.62,-70.58c-0.31,4.38 -0.53,8.79 -0.67,13.22l-1.45,2.14s-19.66,17 -40.5,39.83c-20.83,22.84 -52,60 -51.83,106.34c0.06,15.51 8.74,27.65 22.94,37.05c0,0 0.03,0.02 0.1,0.06c0.03,0.02 0.07,0.04 0.12,0.07c28.29,18.63 78.23,26.48 125.56,28.48c4.48,0.19 9.03,0.35 13.63,0.48c68.64,2.02 149.61,-1.84 212.87,-9.81c8.07,-1.02 16.47,-2.25 25.06,-3.67c52.56,-8.6 112.2,-23.7 146.26,-34.71z" class="st10"/>
  <path id="svg_12" fill="#007db9" d="m993.27335,414.36003c-0.02,0.35 -0.04,0.71 -0.07,1.07c-4.44,-6.03 -26.72,-20.8 -63.37,-21.63c-37.25,-0.83 -53.5,7.5 -58.25,10.25c-0.27,0.16 -1.09,0.48 -2.41,0.96c-15.86,-20.89 -34.11,-39.87 -54.35,-56.53c1.42,-0.14 2.58,-0.26 3.45,-0.34c16.22,-1.56 82.22,-9.34 129,7.05c46.78,16.39 46.67,47.28 46,59.17z" class="st5"/>
  <path id="svg_13" fill="#0081fe" d="m1035.37335,543.29003c-77.81,95.81 -317.28,220.41 -317.28,220.41c-34.06,11.01 -93.7,26.11 -146.26,34.71c-8.59,1.42 -16.99,2.65 -25.06,3.67c-63.26,7.97 -144.23,11.83 -212.87,9.81c-4.6,-0.13 -9.15,-0.29 -13.63,-0.48c-47.33,-2 -97.27,-9.85 -125.56,-28.48c3,1.74 36.92,20.69 91.31,20.26c57,-0.44 117.37,-7.94 192.82,-29.02l44.93,-11.38c402.15,-117.21 498.69,-206.14 510.46,-218.28c0.57,-0.59 0.94,-1 1.14,-1.22z" class="st2"/>
  <path id="svg_14" stroke-miterlimit="10" stroke="#ff8600" fill="none" d="m993.41335,415.72003c-0.06,-0.09 -0.13,-0.19 -0.21,-0.29" class="st0"/>
 </g>
</svg>